<?xml version="1.0" encoding="UTF-8" standalone="no"?>
<svg
   xmlns:lucid="lucid"
   xmlns:dc="http://purl.org/dc/elements/1.1/"
   xmlns:cc="http://creativecommons.org/ns#"
   xmlns:rdf="http://www.w3.org/1999/02/22-rdf-syntax-ns#"
   xmlns:svg="http://www.w3.org/2000/svg"
   xmlns="http://www.w3.org/2000/svg"
   xmlns:xlink="http://www.w3.org/1999/xlink"
   id="svg754"
   version="1.1"
   height="858.14"
   width="877.62">
  <metadata
     id="metadata760">
    <rdf:RDF>
      <cc:Work
         rdf:about="">
        <dc:format>image/svg+xml</dc:format>
        <dc:type
           rdf:resource="http://purl.org/dc/dcmitype/StillImage" />
        <dc:title></dc:title>
      </cc:Work>
    </rdf:RDF>
  </metadata>
  <defs
     id="defs758" />
  <g
     id="g752"
     lucid:page-tab-id="0_0"
     transform="translate(-40 -60)">
    <path
       fill="none"
       stroke="#c92d39"
       stroke-width="2"
       id="path212"
       d="M314.24 441.15h4m8.04 0h8.03m8.04 0H350v-.36m0-8.04v-8.03m0-8.03v-8.03m0-8.03v-8.03m0-8.02v-8.03m0-8.03v-8.03m0-8.04v-8.03m0-8.02v-8.02m0-8.03v-8.03m0-8.03v-8.04m0-8.03v-8.03m0-8.03v-8.03m0-8.03v-5.26h2.75m8.03 0h8.03m8.04 0h8.03m8.03 0h8.03m8.03 0H417m8.02 0h8.02m8.03 0h8.03m8.03 0h8.03m8.03 0h8.02m8.03 0h8.03m8.03 0h8.04m8.03 0h8.03m8.02 0h8.03m8.03 0h8.03m8.04 0h8.03m8.03 0h8.03m8.03 0h4M314.24 441.15h-3" />
    <path
       fill="#fff"
       stroke="#000"
       stroke-width="2"
       id="path2"
       d="M414.53 382.7c-12.9 0-23.38 10.48-23.38 23.4v70.12c0 12.9 10.47 23.37 23.38 23.37h109.1c12.9 0 23.36-10.47 23.36-23.38V406.1c0-12.92-10.47-23.4-23.38-23.4z" />
    <path
       fill="none"
       stroke="#000"
       stroke-width="2"
       id="path4"
       d="M391.15 427H547" />
    <use
       id="use6"
       transform="matrix(1,0,0,1,422.32129243056806,382.71359593392623) translate(14.672596357475655 25.64252435408725)"
       xlink:href="#a" />
    <use
       id="use8"
       transform="matrix(1,0,0,1,406.73758092817803,442.71359593392623) translate(0.8806296766906883 14.570097416349004)"
       xlink:href="#b" />
    <use
       id="use10"
       transform="matrix(1,0,0,1,406.73758092817803,442.71359593392623) translate(33.15744270318604 14.570097416349004)"
       xlink:href="#c" />
    <use
       id="use12"
       transform="matrix(1,0,0,1,406.73758092817803,442.71359593392623) translate(38.216504306085 36.425243540872515)"
       xlink:href="#d" />
    <path
       fill="none"
       id="path14"
       d="M548 441.15h57.67" />
    <path
       fill="none"
       stroke="#c92d39"
       stroke-width="2"
       id="path16"
       d="M548 441.15h3.6m7.2 0h7.22m7.2 0h7.22m7.2 0h7.22m7.2 0h3.6M548 441.15h-3" />
    <path
       fill="#c92d39"
       stroke="#c92d39"
       stroke-width="2"
       id="path18"
       d="M620.67 441.15l-14.26 4.64v-9.28z" />
    <path
       fill="none"
       id="path20"
       d="M548 631.47h37.95V441.15h19.72" />
    <path
       fill="none"
       stroke="#c92d39"
       stroke-width="2"
       id="path22"
       d="M548 631.47h4.12m8.27 0h8.26m8.26 0h8.27m.75-7.5v-8.28m0-8.27v-8.27m0-8.27v-8.27m0-8.27v-8.26m0-8.27v-8.27m0-8.26v-8.27m0-8.27v-8.26m0-8.27v-8.27m0-8.26v-8.27m0-8.27v-8.26m0-8.27v-8.27m0-8.26v-.95h7.32m8.27 0h4.13M548 631.47h-3" />
    <path
       fill="#c92d39"
       stroke="#c92d39"
       stroke-width="2"
       id="path24"
       d="M620.67 441.15l-14.26 4.64v-9.28z" />
    <path
       fill="none"
       id="path26"
       d="M702.83 381.7v-53.2" />
    <path
       fill="none"
       stroke="#c92d39"
       stroke-width="2"
       id="path28"
       d="M702.83 381.7v-4.42m0-8.87v-8.85m0-8.87v-8.87m0-8.86v-4.43M702.83 381.7v3" />
    <path
       fill="#c92d39"
       stroke="#c92d39"
       stroke-width="2"
       id="path30"
       d="M702.83 313.5l4.63 14.28h-9.27z" />
    <path
       fill="none"
       id="path32"
       d="M314.24 250.84h291.43" />
    <path
       fill="none"
       stroke="#c92d39"
       stroke-width="2"
       id="path34"
       d="M314.24 250.84h4.04m8.1 0h8.1m8.1 0h8.1m8.08 0h8.1m8.1 0h8.1m8.08 0h8.1m8.1 0h8.1m8.08 0h8.1m8.1 0h8.1m8.1 0H464m8.1 0h8.1m8.1 0h8.08m8.1 0h8.1m8.1 0h8.1m8.08 0h8.1m8.1 0h8.1m8.08 0h8.1m8.1 0h8.1m8.1 0h4.03M314.24 250.84h-3" />
    <path
       fill="#c92d39"
       stroke="#c92d39"
       stroke-width="2"
       id="path36"
       d="M620.67 250.84l-14.26 4.63v-9.27z" />
    <path
       stroke="#000"
       stroke-width="2"
       id="path38"
       d="M254.8 99.48c0 10.76-8.72 19.48-19.48 19.48s-19.48-8.72-19.48-19.48S224.56 80 235.32 80s19.48 8.72 19.48 19.48z" />
    <path
       fill="#fff"
       stroke="#000"
       stroke-width="2"
       id="path40"
       d="M180.77 192.4c-12.9 0-23.37 10.46-23.37 23.37v70.13c0 12.9 10.46 23.38 23.37 23.38h109.1c12.9 0 23.37-10.47 23.37-23.38v-70.13c0-12.9-10.47-23.37-23.38-23.37z" />
    <path
       fill="none"
       stroke="#000"
       stroke-width="2"
       id="path42"
       d="M157.4 236h155.84" />
    <use
       id="use44"
       transform="matrix(1,0,0,1,188.56561989471777,192.3975192109881) translate(2.5561438185326537 25.64252435408725)"
       xlink:href="#e" />
    <use
       id="use46"
       transform="matrix(1,0,0,1,172.98190839232774,252.3975192109881) translate(4.9531742670243375 14.570097416349004)"
       xlink:href="#b" />
    <use
       id="use48"
       transform="matrix(1,0,0,1,172.98190839232774,252.3975192109881) translate(37.22998729351969 14.570097416349004)"
       xlink:href="#f" />
    <use
       id="use50"
       transform="matrix(1,0,0,1,172.98190839232774,252.3975192109881) translate(38.216504306085 36.425243540872515)"
       xlink:href="#d" />
    <path
       fill="#fff"
       stroke="#000"
       stroke-width="2"
       id="path52"
       d="M180.77 382.7c-12.9 0-23.37 10.48-23.37 23.4v70.12c0 12.9 10.46 23.37 23.37 23.37h109.1c12.9 0 23.37-10.47 23.37-23.38V406.1c0-12.92-10.47-23.4-23.38-23.4z" />
    <path
       fill="none"
       stroke="#000"
       stroke-width="2"
       id="path54"
       d="M157.4 427h155.84" />
    <use
       id="use56"
       transform="matrix(1,0,0,1,188.56561989471777,382.71359593392623) translate(5.591580780272025 25.64252435408725)"
       xlink:href="#g" />
    <use
       id="use58"
       transform="matrix(1,0,0,1,172.98190839232774,442.71359593392623) translate(44.81857969786814 14.570097416349004)"
       xlink:href="#h" />
    <use
       id="use60"
       transform="matrix(1,0,0,1,172.98190839232774,442.71359593392623) translate(5.509671043343225 36.425243540872515)"
       xlink:href="#i" />
    <use
       id="use62"
       transform="matrix(1,0,0,1,172.98190839232774,442.71359593392623) translate(97.38222975198832 36.425243540872515)"
       xlink:href="#j" />
    <path
       fill="#fff"
       stroke="#000"
       stroke-width="2"
       id="path64"
       d="M414.53 573.03c-12.9 0-23.38 10.47-23.38 23.38v70.13c0 12.9 10.47 23.38 23.38 23.38h109.1c12.9 0 23.36-10.46 23.36-23.37V596.4c0-12.9-10.47-23.37-23.38-23.37z" />
    <path
       fill="none"
       stroke="#000"
       stroke-width="2"
       id="path66"
       d="M391.15 617H547" />
    <use
       id="use68"
       transform="matrix(1,0,0,1,422.32129243056806,573.0296726568645) translate(1.5190361899383618 25.64252435408725)"
       xlink:href="#k" />
    <use
       id="use70"
       transform="matrix(1,0,0,1,406.73758092817803,633.0296726568645) translate(42.82025036472305 14.570097416349004)"
       xlink:href="#l" />
    <use
       id="use72"
       transform="matrix(1,0,0,1,406.73758092817803,633.0296726568645) translate(1.917737305284959 36.425243540872515)"
       xlink:href="#i" />
    <use
       id="use74"
       transform="matrix(1,0,0,1,406.73758092817803,633.0296726568645) translate(93.79029601393006 36.425243540872515)"
       xlink:href="#m" />
    <path
       fill="#fff"
       stroke="#000"
       stroke-width="2"
       id="path76"
       d="M651.87 564.07c-14.9 0-26.96 12.07-26.96 26.96v80.88c0 14.9 12.08 26.97 26.97 26.97H753.8c14.88 0 26.95-12.07 26.95-26.96v-80.87c0-14.9-12.07-26.96-26.96-26.96z" />
    <path
       fill="none"
       stroke="#000"
       stroke-width="2"
       id="path78"
       d="M624.9 608h155.85" />
    <use
       id="use80"
       transform="matrix(1,0,0,1,656.0769649664185,564.0690385429901) translate(13.154877876605966 25.64252435408725)"
       xlink:href="#n" />
    <use
       id="use82"
       transform="matrix(1,0,0,1,640.4932534640284,624.0690385429901) translate(21.648077556590906 14.570097416349004)"
       xlink:href="#o" />
    <use
       id="use84"
       transform="matrix(1,0,0,1,640.4932534640284,624.0690385429901) translate(58.983952185985224 14.570097416349004)"
       xlink:href="#p" />
    <use
       id="use86"
       transform="matrix(1,0,0,1,640.4932534640284,624.0690385429901) translate(85.24048190503082 14.570097416349004)"
       xlink:href="#q" />
    <use
       id="use88"
       transform="matrix(1,0,0,1,640.4932534640284,624.0690385429901) translate(11.454068426749501 36.425243540872515)"
       xlink:href="#r" />
    <use
       id="use90"
       transform="matrix(1,0,0,1,640.4932534640284,624.0690385429901) translate(99.4311497011624 36.425243540872515)"
       xlink:href="#s" />
    <use
       id="use92"
       transform="matrix(1,0,0,1,640.4932534640284,624.0690385429901) translate(0.9312202927196722 58.280389665396015)"
       xlink:href="#t" />
    <use
       id="use94"
       transform="matrix(1,0,0,1,640.4932534640284,624.0690385429901) translate(28.098381100287078 58.280389665396015)"
       xlink:href="#u" />
    <use
       id="use96"
       transform="matrix(1,0,0,1,640.4932534640284,624.0690385429901) translate(48.334627511882914 58.280389665396015)"
       xlink:href="#v" />
    <path
       fill="#fff"
       stroke="#000"
       stroke-width="2"
       id="path98"
       d="M648.3 192.4c-12.92 0-23.4 10.46-23.4 23.37v70.13c0 12.9 10.48 23.38 23.4 23.38h109.07c12.9 0 23.38-10.47 23.38-23.38v-70.13c0-12.9-10.47-23.37-23.38-23.37z" />
    <path
       fill="none"
       stroke="#000"
       stroke-width="2"
       id="path100"
       d="M624.9 236h155.85" />
    <use
       id="use102"
       transform="matrix(1,0,0,1,656.0769649664185,192.3975192109881) translate(22.286484069838586 25.64252435408725)"
       xlink:href="#w" />
    <use
       id="use104"
       transform="matrix(1,0,0,1,640.4932534640284,252.3975192109881) translate(24.658219210315792 14.570097416349004)"
       xlink:href="#b" />
    <use
       id="use106"
       transform="matrix(1,0,0,1,640.4932534640284,252.3975192109881) translate(56.935032236811146 14.570097416349004)"
       xlink:href="#x" />
    <use
       id="use108"
       transform="matrix(1,0,0,1,640.4932534640284,252.3975192109881) translate(38.216504306085 36.425243540872515)"
       xlink:href="#d" />
    <path
       fill="#fff"
       stroke="#000"
       stroke-width="2"
       id="path110"
       d="M648.3 382.7c-12.92 0-23.4 10.48-23.4 23.4v70.12c0 12.9 10.48 23.37 23.4 23.37h109.07c12.9 0 23.38-10.47 23.38-23.38V406.1c0-12.92-10.47-23.4-23.38-23.4z" />
    <path
       fill="none"
       stroke="#000"
       stroke-width="2"
       id="path112"
       d="M624.9 427h155.85" />
    <use
       id="use114"
       transform="matrix(1,0,0,1,656.0769649664185,382.71359593392623) translate(-5.007153277801294 25.64252435408725)"
       xlink:href="#y" />
    <use
       id="use116"
       transform="matrix(1,0,0,1,640.4932534640284,442.71359593392623) translate(23.191091345475087 24.14252435408725)"
       xlink:href="#z" />
    <use
       id="use118"
       transform="matrix(1,0,0,1,640.4932534640284,442.71359593392623) translate(49.34643983246271 24.14252435408725)"
       xlink:href="#A" />
    <use
       id="use120"
       transform="matrix(1,0,0,1,640.4932534640284,442.71359593392623) translate(79.70080944985645 24.14252435408725)"
       xlink:href="#j" />
    <path
       fill="#fff"
       stroke="#000"
       stroke-width="2"
       id="path122"
       d="M651.87 763.35c-14.9 0-26.96 12.07-26.96 26.96v80.9c0 14.87 12.08 26.94 26.97 26.94H753.8c14.88 0 26.95-12.07 26.95-26.95v-80.9c0-14.88-12.07-26.95-26.96-26.95z" />
    <path
       fill="none"
       stroke="#000"
       stroke-width="2"
       id="path124"
       d="M624.9 807h155.85" />
    <use
       id="use126"
       transform="matrix(1,0,0,1,656.0769649664185,763.3457493798028) translate(2.075532966257242 25.64252435408725)"
       xlink:href="#B" />
    <use
       id="use128"
       transform="matrix(1,0,0,1,640.4932534640284,823.3457493798028) translate(48.8911242882018 14.570097416349004)"
       xlink:href="#C" />
    <use
       id="use130"
       transform="matrix(1,0,0,1,640.4932534640284,823.3457493798028) translate(4.421972798719963 36.425243540872515)"
       xlink:href="#D" />
    <use
       id="use132"
       transform="matrix(1,0,0,1,640.4932534640284,823.3457493798028) translate(38.216504306085 58.280389665396015)"
       xlink:href="#d" />
    <path
       fill="none"
       stroke="#7ab648"
       stroke-width="2"
       id="path134"
       d="M235.32 310.28v53.2M235.32 310.28v-3" />
    <path
       fill="#7ab648"
       stroke="#7ab648"
       stroke-width="2"
       id="path136"
       d="M235.32 378.48l-4.64-14.27h9.27z" />
    <path
       fill="none"
       stroke="#7ab648"
       stroke-width="2"
       id="path138"
       d="M314.24 441.15h57.68M314.24 441.15h-3" />
    <path
       fill="#7ab648"
       stroke="#7ab648"
       stroke-width="2"
       id="path140"
       d="M386.92 441.15l-14.27 4.64v-9.28z" />
    <path
       fill="none"
       stroke="#7ab648"
       stroke-width="2"
       id="path142"
       d="M469.07 500.6v53.2M469.07 500.6v-3" />
    <path
       fill="#7ab648"
       stroke="#7ab648"
       stroke-width="2"
       id="path144"
       d="M469.07 568.8l-4.63-14.27h9.27z" />
    <path
       fill="none"
       stroke="#7ab648"
       stroke-width="2"
       id="path146"
       d="M548 631.47h57.67M548 631.47h-3" />
    <path
       fill="#7ab648"
       stroke="#7ab648"
       stroke-width="2"
       id="path148"
       d="M620.67 631.47l-14.26 4.63v-9.27z" />
    <path
       fill="none"
       stroke="#000"
       stroke-width="2"
       id="path150"
       d="M702.83 699.87v44.24M702.83 699.87v-3" />
    <path
       stroke="#000"
       stroke-width="2"
       id="path152"
       d="M702.83 759.1l-4.64-14.26h9.26z" />
    <path
       fill="none"
       stroke="#000"
       stroke-width="2"
       id="path154"
       d="M235.32 119.96v53.2M235.32 119.96v-3" />
    <path
       stroke="#000"
       stroke-width="2"
       id="path156"
       d="M235.32 188.16l-4.64-14.26h9.27z" />
    <path
       fill="#fff"
       stroke="#000"
       stroke-width="2"
       id="path158"
       d="M897.62 830.75c0 10.75-8.72 19.47-19.48 19.47-10.75 0-19.47-8.72-19.47-19.47 0-10.76 8.72-19.48 19.47-19.48 10.76 0 19.48 8.72 19.48 19.48z" />
    <path
       stroke="#000"
       stroke-width="2"
       id="path160"
       d="M889.83 830.75c0 6.45-5.23 11.68-11.7 11.68-6.44 0-11.67-5.23-11.67-11.68 0-6.46 5.23-11.7 11.68-11.7 6.46 0 11.7 5.24 11.7 11.7z" />
    <path
       fill="none"
       stroke="#000"
       stroke-width="2"
       id="path162"
       d="M781.75 830.75h57.68M781.75 830.75h-3" />
    <path
       stroke="#000"
       stroke-width="2"
       id="path164"
       d="M854.43 830.75l-14.27 4.63v-9.27z" />
    <path
       fill="none"
       stroke="#000"
       stroke-width="2"
       id="path166"
       d="M781.75 250.84h96.4v541.2M781.75 250.84h-3" />
    <path
       stroke="#000"
       stroke-width="2"
       id="path168"
       d="M878.14 807.03l-4.63-14.27h9.28z" />
    <path
       fill-opacity="0"
       stroke="#999"
       stroke-width="2"
       id="path170"
       d="M60 659.13h272.7v239H60z" />
    <path
       fill="none"
       id="path172"
       d="M79.48 659.13h233.76v58.44H79.48z" />
    <g
       id="g176">
      <use
         id="use174"
         transform="matrix(1,0,0,1,79.47963937798754,659.1296787075694) translate(84.72318697350464 33.14252435408725)"
         xlink:href="#E" />
    </g>
    <path
       fill="#fff"
       fill-opacity="0"
       stroke="#000"
       stroke-width="2"
       stroke-opacity="0"
       id="path178"
       d="M186.62 711.72H303.5v58.44H186.62z" />
    <g
       id="g182">
      <use
         id="use180"
         transform="matrix(1,0,0,1,191.61765595691895,716.7247050281358) translate(19.09838110028707 28.14252435408725)"
         xlink:href="#F" />
    </g>
    <path
       fill="none"
       stroke="#7ab648"
       stroke-width="2"
       id="path184"
       d="M108.7 740.94h59.68" />
    <path
       fill="#7ab648"
       stroke="#7ab648"
       stroke-width="2"
       id="path186"
       d="M183.38 740.94l-14.26 4.64v-9.27z" />
    <path
       fill="#fff"
       fill-opacity="0"
       stroke="#000"
       stroke-width="2"
       stroke-opacity="0"
       id="path188"
       d="M186.62 770.16H303.5v58.44H186.62z" />
    <g
       id="g192">
      <use
         id="use190"
         transform="matrix(1,0,0,1,191.61765595691895,775.1636231620982) translate(25.776342416113707 28.14252435408725)"
         xlink:href="#G" />
    </g>
    <path
       fill="none"
       id="path194"
       d="M108.7 799.38h59.68" />
    <path
       fill="none"
       stroke="#c92d39"
       stroke-width="2"
       id="path196"
       d="M108.7 799.38h3.73m7.46 0h7.45m7.46 0h7.47m7.46 0h7.46m7.45 0h3.73" />
    <path
       fill="#c92d39"
       stroke="#c92d39"
       stroke-width="2"
       id="path198"
       d="M183.38 799.38l-14.26 4.64v-9.27z" />
    <path
       fill="#fff"
       fill-opacity="0"
       stroke="#000"
       stroke-width="2"
       stroke-opacity="0"
       id="path200"
       d="M186.62 828.6H303.5v58.44H186.62z" />
    <g
       id="g204">
      <use
         id="use202"
         transform="matrix(1,0,0,1,191.61765595691895,833.6025412960607) translate(20.211374652924846 28.14252435408725)"
         xlink:href="#H" />
    </g>
    <path
       fill="none"
       stroke="#000"
       stroke-width="2"
       id="path206"
       d="M108.7 857.82h59.68" />
    <path
       stroke="#000"
       stroke-width="2"
       id="path208"
       d="M183.38 857.82l-14.27 4.64v-9.27z" />
    <path
       fill="none"
       id="path210"
       d="M314.24 441.15H350v-190.3h255.67" />
    <path
       fill="#c92d39"
       stroke="#c92d39"
       stroke-width="2"
       id="path214"
       d="M620.67 250.84l-14.26 4.63v-9.27z" />
    <defs
       id="defs750">
      <path
         id="I"
         d="M212-179c-10-28-35-45-73-45-59 0-87 40-87 99 0 60 29 101 89 101 43 0 62-24 78-52l27 14C228-24 195 4 139 4 59 4 22-46 18-125c-6-104 99-153 187-111 19 9 31 26 39 46" />
      <path
         id="J"
         d="M114-163C36-179 61-72 57 0H25l-1-190h30c1 12-1 29 2 39 6-27 23-49 58-41v29" />
      <path
         id="K"
         d="M100-194c63 0 86 42 84 106H49c0 40 14 67 53 68 26 1 43-12 49-29l28 8c-11 28-37 45-77 45C44 4 14-33 15-96c1-61 26-98 85-98zm52 81c6-60-76-77-97-28-3 7-6 17-6 28h103" />
      <path
         id="L"
         d="M141-36C126-15 110 5 73 4 37 3 15-17 15-53c-1-64 63-63 125-63 3-35-9-54-41-54-24 1-41 7-42 31l-33-3c5-37 33-52 76-52 45 0 72 20 72 64v82c-1 20 7 32 28 27v20c-31 9-61-2-59-35zM48-53c0 20 12 33 32 33 41-3 63-29 60-74-43 2-92-5-92 41" />
      <path
         id="M"
         d="M59-47c-2 24 18 29 38 22v24C64 9 27 4 27-40v-127H5v-23h24l9-43h21v43h35v23H59v120" />
      <path
         id="N"
         d="M85-194c31 0 48 13 60 33l-1-100h32l1 261h-30c-2-10 0-23-3-31C134-8 116 4 85 4 32 4 16-35 15-94c0-66 23-100 70-100zm9 24c-40 0-46 34-46 75 0 40 6 74 45 74 42 0 51-32 51-76 0-42-9-74-50-73" />
      <g
         id="a">
        <use
           id="use222"
           xlink:href="#I"
           transform="matrix(0.05059061602898959,0,0,0.05059061602898959,0,0)" />
        <use
           id="use224"
           xlink:href="#J"
           transform="matrix(0.05059061602898959,0,0,0.05059061602898959,13.102969551508306,0)" />
        <use
           id="use226"
           xlink:href="#K"
           transform="matrix(0.05059061602898959,0,0,0.05059061602898959,19.123252858958068,0)" />
        <use
           id="use228"
           xlink:href="#L"
           transform="matrix(0.05059061602898959,0,0,0.05059061602898959,29.241376064755986,0)" />
        <use
           id="use230"
           xlink:href="#M"
           transform="matrix(0.05059061602898959,0,0,0.05059061602898959,39.359499270553904,0)" />
        <use
           id="use232"
           xlink:href="#K"
           transform="matrix(0.05059061602898959,0,0,0.05059061602898959,44.41856087345286,0)" />
        <use
           id="use234"
           xlink:href="#N"
           transform="matrix(0.05059061602898959,0,0,0.05059061602898959,54.53668407925077,0)" />
      </g>
      <path
         id="O"
         d="M96-169c-40 0-48 33-48 73s9 75 48 75c24 0 41-14 43-38l32 2c-6 37-31 61-74 61-59 0-76-41-82-99-10-93 101-131 147-64 4 7 5 14 7 22l-32 3c-4-21-16-35-41-35" />
      <path
         id="P"
         d="M24 0v-261h32V0H24" />
      <g
         id="b">
        <use
           id="use239"
           xlink:href="#O"
           transform="matrix(0.05059061602898959,0,0,0.05059061602898959,0,0)" />
        <use
           id="use241"
           xlink:href="#L"
           transform="matrix(0.05059061602898959,0,0,0.05059061602898959,9.106310885218127,0)" />
        <use
           id="use243"
           xlink:href="#P"
           transform="matrix(0.05059061602898959,0,0,0.05059061602898959,19.224434091016043,0)" />
        <use
           id="use245"
           xlink:href="#P"
           transform="matrix(0.05059061602898959,0,0,0.05059061602898959,23.22109275730622,0)" />
      </g>
      <path
         id="Q"
         d="M115-194c55 1 70 41 70 98S169 2 115 4C84 4 66-9 55-30l1 105H24l-1-265h31l2 30c10-21 28-34 59-34zm-8 174c40 0 45-34 45-75s-6-73-45-74c-42 0-51 32-51 76 0 43 10 73 51 73" />
      <path
         id="R"
         d="M100-194c62-1 85 37 85 99 1 63-27 99-86 99S16-35 15-95c0-66 28-99 85-99zM99-20c44 1 53-31 53-75 0-43-8-75-51-75s-53 32-53 75 10 74 51 75" />
      <path
         id="S"
         d="M135-143c-3-34-86-38-87 0 15 53 115 12 119 90S17 21 10-45l28-5c4 36 97 45 98 0-10-56-113-15-118-90-4-57 82-63 122-42 12 7 21 19 24 35" />
      <path
         id="T"
         d="M16-82v-28h88v28H16" />
      <g
         id="c">
        <use
           id="use252"
           xlink:href="#Q"
           transform="matrix(0.05059061602898959,0,0,0.05059061602898959,0,0)" />
        <use
           id="use254"
           xlink:href="#R"
           transform="matrix(0.05059061602898959,0,0,0.05059061602898959,10.118123205797918,0)" />
        <use
           id="use256"
           xlink:href="#S"
           transform="matrix(0.05059061602898959,0,0,0.05059061602898959,20.236246411595836,0)" />
        <use
           id="use258"
           xlink:href="#M"
           transform="matrix(0.05059061602898959,0,0,0.05059061602898959,29.342557296813965,0)" />
        <use
           id="use260"
           xlink:href="#T"
           transform="matrix(0.05059061602898959,0,0,0.05059061602898959,34.40161889971292,0)" />
        <use
           id="use262"
           xlink:href="#O"
           transform="matrix(0.05059061602898959,0,0,0.05059061602898959,40.42190220716268,0)" />
        <use
           id="use264"
           xlink:href="#J"
           transform="matrix(0.05059061602898959,0,0,0.05059061602898959,49.52821309238081,0)" />
        <use
           id="use266"
           xlink:href="#K"
           transform="matrix(0.05059061602898959,0,0,0.05059061602898959,55.548496399830576,0)" />
        <use
           id="use268"
           xlink:href="#L"
           transform="matrix(0.05059061602898959,0,0,0.05059061602898959,65.66661960562848,0)" />
        <use
           id="use270"
           xlink:href="#M"
           transform="matrix(0.05059061602898959,0,0,0.05059061602898959,75.7847428114264,0)" />
        <use
           id="use272"
           xlink:href="#K"
           transform="matrix(0.05059061602898959,0,0,0.05059061602898959,80.84380441432536,0)" />
        <path
           id="path274"
           d="M-.9 1.26h92.77V2.6H-.9z" />
      </g>
      <path
         id="U"
         d="M106-169C34-169 62-67 57 0H25v-261h32l-1 103c12-21 28-36 61-36 89 0 53 116 60 194h-32v-121c2-32-8-49-39-48" />
      <path
         id="V"
         d="M143 0L79-87 56-68V0H24v-261h32v163l83-92h37l-77 82L181 0h-38" />
      <g
         id="d">
        <use
           id="use279"
           xlink:href="#U"
           transform="matrix(0.05059061602898959,0,0,0.05059061602898959,0,0)" />
        <use
           id="use281"
           xlink:href="#R"
           transform="matrix(0.05059061602898959,0,0,0.05059061602898959,10.118123205797918,0)" />
        <use
           id="use283"
           xlink:href="#R"
           transform="matrix(0.05059061602898959,0,0,0.05059061602898959,20.236246411595836,0)" />
        <use
           id="use285"
           xlink:href="#V"
           transform="matrix(0.05059061602898959,0,0,0.05059061602898959,30.354369617393758,0)" />
        <use
           id="use287"
           xlink:href="#S"
           transform="matrix(0.05059061602898959,0,0,0.05059061602898959,39.46068050261188,0)" />
      </g>
      <path
         id="W"
         d="M117-194c89-4 53 116 60 194h-32v-121c0-31-8-49-39-48C34-167 62-67 57 0H25l-1-190h30c1 10-1 24 2 32 11-22 29-35 61-36" />
      <path
         id="X"
         d="M101-234c-31-9-42 10-38 44h38v23H63V0H32v-167H5v-23h27c-7-52 17-82 69-68v24" />
      <path
         id="Y"
         d="M24-231v-30h32v30H24zM24 0v-190h32V0H24" />
      <path
         id="Z"
         d="M177-190C167-65 218 103 67 71c-23-6-38-20-44-43l32-5c15 47 100 32 89-28v-30C133-14 115 1 83 1 29 1 15-40 15-95c0-56 16-97 71-98 29-1 48 16 59 35 1-10 0-23 2-32h30zM94-22c36 0 50-32 50-73 0-42-14-75-50-75-39 0-46 34-46 75s6 73 46 73" />
      <path
         id="aa"
         d="M84 4C-5 8 30-112 23-190h32v120c0 31 7 50 39 49 72-2 45-101 50-169h31l1 190h-30c-1-10 1-25-2-33-11 22-28 36-60 37" />
      <g
         id="e">
        <use
           id="use295"
           xlink:href="#I"
           transform="matrix(0.05059061602898959,0,0,0.05059061602898959,0,0)" />
        <use
           id="use297"
           xlink:href="#R"
           transform="matrix(0.05059061602898959,0,0,0.05059061602898959,13.102969551508306,0)" />
        <use
           id="use299"
           xlink:href="#W"
           transform="matrix(0.05059061602898959,0,0,0.05059061602898959,23.221092757306224,0)" />
        <use
           id="use301"
           xlink:href="#X"
           transform="matrix(0.05059061602898959,0,0,0.05059061602898959,33.33921596310414,0)" />
        <use
           id="use303"
           xlink:href="#Y"
           transform="matrix(0.05059061602898959,0,0,0.05059061602898959,38.398277566003095,0)" />
        <use
           id="use305"
           xlink:href="#Z"
           transform="matrix(0.05059061602898959,0,0,0.05059061602898959,42.394936232293276,0)" />
        <use
           id="use307"
           xlink:href="#aa"
           transform="matrix(0.05059061602898959,0,0,0.05059061602898959,52.51305943809118,0)" />
        <use
           id="use309"
           xlink:href="#J"
           transform="matrix(0.05059061602898959,0,0,0.05059061602898959,62.631182643889105,0)" />
        <use
           id="use311"
           xlink:href="#K"
           transform="matrix(0.05059061602898959,0,0,0.05059061602898959,68.65146595133886,0)" />
        <use
           id="use313"
           xlink:href="#N"
           transform="matrix(0.05059061602898959,0,0,0.05059061602898959,78.76958915713678,0)" />
      </g>
      <g
         id="f">
        <use
           id="use316"
           xlink:href="#Q"
           transform="matrix(0.05059061602898959,0,0,0.05059061602898959,0,0)" />
        <use
           id="use318"
           xlink:href="#J"
           transform="matrix(0.05059061602898959,0,0,0.05059061602898959,10.118123205797918,0)" />
        <use
           id="use320"
           xlink:href="#K"
           transform="matrix(0.05059061602898959,0,0,0.05059061602898959,16.13840651324768,0)" />
        <use
           id="use322"
           xlink:href="#T"
           transform="matrix(0.05059061602898959,0,0,0.05059061602898959,26.2565297190456,0)" />
        <use
           id="use324"
           xlink:href="#O"
           transform="matrix(0.05059061602898959,0,0,0.05059061602898959,32.27681302649536,0)" />
        <use
           id="use326"
           xlink:href="#J"
           transform="matrix(0.05059061602898959,0,0,0.05059061602898959,41.38312391171349,0)" />
        <use
           id="use328"
           xlink:href="#K"
           transform="matrix(0.05059061602898959,0,0,0.05059061602898959,47.40340721916325,0)" />
        <use
           id="use330"
           xlink:href="#L"
           transform="matrix(0.05059061602898959,0,0,0.05059061602898959,57.52153042496117,0)" />
        <use
           id="use332"
           xlink:href="#M"
           transform="matrix(0.05059061602898959,0,0,0.05059061602898959,67.63965363075908,0)" />
        <use
           id="use334"
           xlink:href="#K"
           transform="matrix(0.05059061602898959,0,0,0.05059061602898959,72.69871523365805,0)" />
        <path
           id="path336"
           d="M-.9 1.26h84.63V2.6H-.9z" />
      </g>
      <path
         id="ab"
         d="M30-248c87 1 191-15 191 75 0 78-77 80-158 76V0H30v-248zm33 125c57 0 124 11 124-50 0-59-68-47-124-48v98" />
      <g
         id="g">
        <use
           id="use340"
           xlink:href="#ab"
           transform="matrix(0.05059061602898959,0,0,0.05059061602898959,0,0)" />
        <use
           id="use342"
           xlink:href="#J"
           transform="matrix(0.05059061602898959,0,0,0.05059061602898959,12.141747846957502,0)" />
        <use
           id="use344"
           xlink:href="#K"
           transform="matrix(0.05059061602898959,0,0,0.05059061602898959,18.162031154407263,0)" />
        <use
           id="use346"
           xlink:href="#I"
           transform="matrix(0.05059061602898959,0,0,0.05059061602898959,28.280154360205184,0)" />
        <use
           id="use348"
           xlink:href="#J"
           transform="matrix(0.05059061602898959,0,0,0.05059061602898959,41.38312391171348,0)" />
        <use
           id="use350"
           xlink:href="#K"
           transform="matrix(0.05059061602898959,0,0,0.05059061602898959,47.40340721916324,0)" />
        <use
           id="use352"
           xlink:href="#L"
           transform="matrix(0.05059061602898959,0,0,0.05059061602898959,57.521530424961156,0)" />
        <use
           id="use354"
           xlink:href="#M"
           transform="matrix(0.05059061602898959,0,0,0.05059061602898959,67.63965363075907,0)" />
        <use
           id="use356"
           xlink:href="#K"
           transform="matrix(0.05059061602898959,0,0,0.05059061602898959,72.69871523365804,0)" />
      </g>
      <g
         id="h">
        <use
           id="use359"
           xlink:href="#S"
           transform="matrix(0.05059061602898959,0,0,0.05059061602898959,0,0)" />
        <use
           id="use361"
           xlink:href="#M"
           transform="matrix(0.05059061602898959,0,0,0.05059061602898959,9.106310885218127,0)" />
        <use
           id="use363"
           xlink:href="#L"
           transform="matrix(0.05059061602898959,0,0,0.05059061602898959,14.165372488117086,0)" />
        <use
           id="use365"
           xlink:href="#J"
           transform="matrix(0.05059061602898959,0,0,0.05059061602898959,24.283495693915004,0)" />
        <use
           id="use367"
           xlink:href="#M"
           transform="matrix(0.05059061602898959,0,0,0.05059061602898959,30.303779001364767,0)" />
      </g>
      <path
         id="ac"
         d="M135-194c53 0 70 44 70 98 0 56-19 98-73 100-31 1-45-17-59-34 3 33 2 69 2 105H25l-1-265h48c2 10 0 23 3 31 11-24 29-35 60-35zM114-30c33 0 39-31 40-66 0-38-9-64-40-64-56 0-55 130 0 130" />
      <path
         id="ad"
         d="M185-48c-13 30-37 53-82 52C43 2 14-33 14-96s30-98 90-98c62 0 83 45 84 108H66c0 31 8 55 39 56 18 0 30-7 34-22zm-45-69c5-46-57-63-70-21-2 6-4 13-4 21h74" />
      <path
         id="ae"
         d="M135-150c-39-12-60 13-60 57V0H25l-1-190h47c2 13-1 29 3 40 6-28 27-53 61-41v41" />
      <path
         id="af"
         d="M137-138c1-29-70-34-71-4 15 46 118 7 119 86 1 83-164 76-172 9l43-7c4 19 20 25 44 25 33 8 57-30 24-41C81-84 22-81 20-136c-2-80 154-74 161-7" />
      <path
         id="ag"
         d="M25-224v-37h50v37H25zM25 0v-190h50V0H25" />
      <path
         id="ah"
         d="M115-3C79 11 28 4 28-45v-112H4v-33h27l15-45h31v45h36v33H77v99c-1 23 16 31 38 25v30" />
      <path
         id="ai"
         d="M135-194c87-1 58 113 63 194h-50c-7-57 23-157-34-157-59 0-34 97-39 157H25l-1-190h47c2 12-1 28 3 38 12-26 28-41 61-42" />
      <g
         id="i">
        <use
           id="use377"
           xlink:href="#ac"
           transform="matrix(0.05059061602898959,0,0,0.05059061602898959,0,0)" />
        <use
           id="use379"
           xlink:href="#ad"
           transform="matrix(0.05059061602898959,0,0,0.05059061602898959,11.079344910348722,0)" />
        <use
           id="use381"
           xlink:href="#ae"
           transform="matrix(0.05059061602898959,0,0,0.05059061602898959,21.197468116146638,0)" />
        <use
           id="use383"
           xlink:href="#af"
           transform="matrix(0.05059061602898959,0,0,0.05059061602898959,28.280154360205184,0)" />
        <use
           id="use385"
           xlink:href="#ag"
           transform="matrix(0.05059061602898959,0,0,0.05059061602898959,38.3982775660031,0)" />
        <use
           id="use387"
           xlink:href="#af"
           transform="matrix(0.05059061602898959,0,0,0.05059061602898959,43.45733916890206,0)" />
        <use
           id="use389"
           xlink:href="#ah"
           transform="matrix(0.05059061602898959,0,0,0.05059061602898959,53.57546237469998,0)" />
        <use
           id="use391"
           xlink:href="#ad"
           transform="matrix(0.05059061602898959,0,0,0.05059061602898959,59.59574568214974,0)" />
        <use
           id="use393"
           xlink:href="#ai"
           transform="matrix(0.05059061602898959,0,0,0.05059061602898959,69.71386888794765,0)" />
        <use
           id="use395"
           xlink:href="#ah"
           transform="matrix(0.05059061602898959,0,0,0.05059061602898959,80.79321379829638,0)" />
      </g>
      <path
         id="aj"
         d="M24-231v-30h32v30H24zM-9 49c24 4 33-6 33-30v-209h32V24c2 40-23 58-65 49V49" />
      <g
         id="j">
        <use
           id="use399"
           xlink:href="#aj"
           transform="matrix(0.05059061602898959,0,0,0.05059061602898959,0,0)" />
        <use
           id="use401"
           xlink:href="#L"
           transform="matrix(0.05059061602898959,0,0,0.05059061602898959,3.9966586662901777,0)" />
        <use
           id="use403"
           xlink:href="#Y"
           transform="matrix(0.05059061602898959,0,0,0.05059061602898959,14.114781872088093,0)" />
        <use
           id="use405"
           xlink:href="#P"
           transform="matrix(0.05059061602898959,0,0,0.05059061602898959,18.11144053837827,0)" />
      </g>
      <g
         id="k">
        <use
           id="use408"
           xlink:href="#ab"
           transform="matrix(0.05059061602898959,0,0,0.05059061602898959,0,0)" />
        <use
           id="use410"
           xlink:href="#R"
           transform="matrix(0.05059061602898959,0,0,0.05059061602898959,12.141747846957502,0)" />
        <use
           id="use412"
           xlink:href="#S"
           transform="matrix(0.05059061602898959,0,0,0.05059061602898959,22.25987105275542,0)" />
        <use
           id="use414"
           xlink:href="#M"
           transform="matrix(0.05059061602898959,0,0,0.05059061602898959,31.366181937973547,0)" />
        <use
           id="use416"
           xlink:href="#I"
           transform="matrix(0.05059061602898959,0,0,0.05059061602898959,36.42524354087251,0)" />
        <use
           id="use418"
           xlink:href="#J"
           transform="matrix(0.05059061602898959,0,0,0.05059061602898959,49.52821309238081,0)" />
        <use
           id="use420"
           xlink:href="#K"
           transform="matrix(0.05059061602898959,0,0,0.05059061602898959,55.548496399830576,0)" />
        <use
           id="use422"
           xlink:href="#L"
           transform="matrix(0.05059061602898959,0,0,0.05059061602898959,65.66661960562848,0)" />
        <use
           id="use424"
           xlink:href="#M"
           transform="matrix(0.05059061602898959,0,0,0.05059061602898959,75.7847428114264,0)" />
        <use
           id="use426"
           xlink:href="#K"
           transform="matrix(0.05059061602898959,0,0,0.05059061602898959,80.84380441432536,0)" />
      </g>
      <path
         id="ak"
         d="M30-248c118-7 216 8 213 122C240-48 200 0 122 0H30v-248zM63-27c89 8 146-16 146-99s-60-101-146-95v194" />
      <g
         id="l">
        <use
           id="use430"
           xlink:href="#ak"
           transform="matrix(0.05059061602898959,0,0,0.05059061602898959,0,0)" />
        <use
           id="use432"
           xlink:href="#J"
           transform="matrix(0.05059061602898959,0,0,0.05059061602898959,13.102969551508306,0)" />
        <use
           id="use434"
           xlink:href="#R"
           transform="matrix(0.05059061602898959,0,0,0.05059061602898959,19.123252858958068,0)" />
        <use
           id="use436"
           xlink:href="#Q"
           transform="matrix(0.05059061602898959,0,0,0.05059061602898959,29.241376064755986,0)" />
      </g>
      <g
         id="m">
        <use
           id="use439"
           xlink:href="#X"
           transform="matrix(0.05059061602898959,0,0,0.05059061602898959,0,0)" />
        <use
           id="use441"
           xlink:href="#P"
           transform="matrix(0.05059061602898959,0,0,0.05059061602898959,5.059061602898959,0)" />
        <use
           id="use443"
           xlink:href="#L"
           transform="matrix(0.05059061602898959,0,0,0.05059061602898959,9.055720269189138,0)" />
        <use
           id="use445"
           xlink:href="#Z"
           transform="matrix(0.05059061602898959,0,0,0.05059061602898959,19.173843474987056,0)" />
      </g>
      <path
         id="al"
         d="M233-177c-1 41-23 64-60 70L243 0h-38l-65-103H63V0H30v-248c88 3 205-21 203 71zM63-129c60-2 137 13 137-47 0-61-80-42-137-45v92" />
      <g
         id="n">
        <use
           id="use449"
           xlink:href="#al"
           transform="matrix(0.05059061602898959,0,0,0.05059061602898959,0,0)" />
        <use
           id="use451"
           xlink:href="#aa"
           transform="matrix(0.05059061602898959,0,0,0.05059061602898959,13.102969551508306,0)" />
        <use
           id="use453"
           xlink:href="#W"
           transform="matrix(0.05059061602898959,0,0,0.05059061602898959,23.221092757306224,0)" />
        <use
           id="use455"
           xlink:href="#W"
           transform="matrix(0.05059061602898959,0,0,0.05059061602898959,33.33921596310414,0)" />
        <use
           id="use457"
           xlink:href="#Y"
           transform="matrix(0.05059061602898959,0,0,0.05059061602898959,43.45733916890205,0)" />
        <use
           id="use459"
           xlink:href="#W"
           transform="matrix(0.05059061602898959,0,0,0.05059061602898959,47.45399783519223,0)" />
        <use
           id="use461"
           xlink:href="#Z"
           transform="matrix(0.05059061602898959,0,0,0.05059061602898959,57.572121040990154,0)" />
      </g>
      <path
         id="am"
         d="M206 0h-36l-40-164L89 0H53L-1-190h32L70-26l43-164h34l41 164 42-164h31" />
      <g
         id="o">
        <use
           id="use465"
           xlink:href="#am"
           transform="matrix(0.05059061602898959,0,0,0.05059061602898959,0,0)" />
        <use
           id="use467"
           xlink:href="#L"
           transform="matrix(0.05059061602898959,0,0,0.05059061602898959,13.102969551508306,0)" />
        <use
           id="use469"
           xlink:href="#Y"
           transform="matrix(0.05059061602898959,0,0,0.05059061602898959,23.221092757306224,0)" />
        <use
           id="use471"
           xlink:href="#M"
           transform="matrix(0.05059061602898959,0,0,0.05059061602898959,27.2177514235964,0)" />
      </g>
      <g
         id="p">
        <use
           id="use474"
           xlink:href="#X"
           transform="matrix(0.05059061602898959,0,0,0.05059061602898959,0,0)" />
        <use
           id="use476"
           xlink:href="#R"
           transform="matrix(0.05059061602898959,0,0,0.05059061602898959,5.059061602898959,0)" />
        <use
           id="use478"
           xlink:href="#J"
           transform="matrix(0.05059061602898959,0,0,0.05059061602898959,15.177184808696879,0)" />
      </g>
      <g
         id="q">
        <use
           id="use481"
           xlink:href="#L"
           transform="matrix(0.05059061602898959,0,0,0.05059061602898959,0,0)" />
        <use
           id="use483"
           xlink:href="#P"
           transform="matrix(0.05059061602898959,0,0,0.05059061602898959,10.118123205797918,0)" />
        <use
           id="use485"
           xlink:href="#P"
           transform="matrix(0.05059061602898959,0,0,0.05059061602898959,14.114781872088093,0)" />
      </g>
      <g
         id="r">
        <use
           id="use488"
           xlink:href="#Q"
           transform="matrix(0.05059061602898959,0,0,0.05059061602898959,0,0)" />
        <use
           id="use490"
           xlink:href="#J"
           transform="matrix(0.05059061602898959,0,0,0.05059061602898959,10.118123205797918,0)" />
        <use
           id="use492"
           xlink:href="#R"
           transform="matrix(0.05059061602898959,0,0,0.05059061602898959,16.13840651324768,0)" />
        <use
           id="use494"
           xlink:href="#O"
           transform="matrix(0.05059061602898959,0,0,0.05059061602898959,26.2565297190456,0)" />
        <use
           id="use496"
           xlink:href="#K"
           transform="matrix(0.05059061602898959,0,0,0.05059061602898959,35.362840604263724,0)" />
        <use
           id="use498"
           xlink:href="#S"
           transform="matrix(0.05059061602898959,0,0,0.05059061602898959,45.48096381006164,0)" />
        <use
           id="use500"
           xlink:href="#S"
           transform="matrix(0.05059061602898959,0,0,0.05059061602898959,54.587274695279774,0)" />
        <use
           id="use502"
           xlink:href="#K"
           transform="matrix(0.05059061602898959,0,0,0.05059061602898959,63.693585580497896,0)" />
        <use
           id="use504"
           xlink:href="#S"
           transform="matrix(0.05059061602898959,0,0,0.05059061602898959,73.81170878629581,0)" />
      </g>
      <g
         id="s">
        <use
           id="use507"
           xlink:href="#Y"
           transform="matrix(0.05059061602898959,0,0,0.05059061602898959,0,0)" />
        <use
           id="use509"
           xlink:href="#W"
           transform="matrix(0.05059061602898959,0,0,0.05059061602898959,3.9966586662901777,0)" />
      </g>
      <g
         id="t">
        <use
           id="use512"
           xlink:href="#aj"
           transform="matrix(0.05059061602898959,0,0,0.05059061602898959,0,0)" />
        <use
           id="use514"
           xlink:href="#L"
           transform="matrix(0.05059061602898959,0,0,0.05059061602898959,3.9966586662901777,0)" />
        <use
           id="use516"
           xlink:href="#Y"
           transform="matrix(0.05059061602898959,0,0,0.05059061602898959,14.114781872088093,0)" />
        <use
           id="use518"
           xlink:href="#P"
           transform="matrix(0.05059061602898959,0,0,0.05059061602898959,18.11144053837827,0)" />
      </g>
      <g
         id="u">
        <use
           id="use521"
           xlink:href="#M"
           transform="matrix(0.05059061602898959,0,0,0.05059061602898959,0,0)" />
        <use
           id="use523"
           xlink:href="#R"
           transform="matrix(0.05059061602898959,0,0,0.05059061602898959,5.059061602898959,0)" />
      </g>
      <path
         id="an"
         d="M210-169c-67 3-38 105-44 169h-31v-121c0-29-5-50-35-48C34-165 62-65 56 0H25l-1-190h30c1 10-1 24 2 32 10-44 99-50 107 0 11-21 27-35 58-36 85-2 47 119 55 194h-31v-121c0-29-5-49-35-48" />
      <g
         id="v">
        <use
           id="use527"
           xlink:href="#M"
           transform="matrix(0.05059061602898959,0,0,0.05059061602898959,0,0)" />
        <use
           id="use529"
           xlink:href="#K"
           transform="matrix(0.05059061602898959,0,0,0.05059061602898959,5.059061602898959,0)" />
        <use
           id="use531"
           xlink:href="#J"
           transform="matrix(0.05059061602898959,0,0,0.05059061602898959,15.177184808696879,0)" />
        <use
           id="use533"
           xlink:href="#an"
           transform="matrix(0.05059061602898959,0,0,0.05059061602898959,21.197468116146638,0)" />
        <use
           id="use535"
           xlink:href="#Y"
           transform="matrix(0.05059061602898959,0,0,0.05059061602898959,36.324062308814526,0)" />
        <use
           id="use537"
           xlink:href="#W"
           transform="matrix(0.05059061602898959,0,0,0.05059061602898959,40.320720975104706,0)" />
        <use
           id="use539"
           xlink:href="#L"
           transform="matrix(0.05059061602898959,0,0,0.05059061602898959,50.43884418090262,0)" />
        <use
           id="use541"
           xlink:href="#M"
           transform="matrix(0.05059061602898959,0,0,0.05059061602898959,60.556967386700535,0)" />
        <use
           id="use543"
           xlink:href="#K"
           transform="matrix(0.05059061602898959,0,0,0.05059061602898959,65.6160289895995,0)" />
      </g>
      <path
         id="ao"
         d="M63-220v92h138v28H63V0H30v-248h175v28H63" />
      <g
         id="w">
        <use
           id="use547"
           xlink:href="#ao"
           transform="matrix(0.05059061602898959,0,0,0.05059061602898959,0,0)" />
        <use
           id="use549"
           xlink:href="#L"
           transform="matrix(0.05059061602898959,0,0,0.05059061602898959,11.079344910348722,0)" />
        <use
           id="use551"
           xlink:href="#Y"
           transform="matrix(0.05059061602898959,0,0,0.05059061602898959,21.197468116146638,0)" />
        <use
           id="use553"
           xlink:href="#P"
           transform="matrix(0.05059061602898959,0,0,0.05059061602898959,25.194126782436815,0)" />
        <use
           id="use555"
           xlink:href="#K"
           transform="matrix(0.05059061602898959,0,0,0.05059061602898959,29.190785448726988,0)" />
        <use
           id="use557"
           xlink:href="#N"
           transform="matrix(0.05059061602898959,0,0,0.05059061602898959,39.30890865452491,0)" />
      </g>
      <g
         id="x">
        <use
           id="use560"
           xlink:href="#X"
           transform="matrix(0.05059061602898959,0,0,0.05059061602898959,0,0)" />
        <use
           id="use562"
           xlink:href="#L"
           transform="matrix(0.05059061602898959,0,0,0.05059061602898959,5.059061602898959,0)" />
        <use
           id="use564"
           xlink:href="#Y"
           transform="matrix(0.05059061602898959,0,0,0.05059061602898959,15.177184808696879,0)" />
        <use
           id="use566"
           xlink:href="#P"
           transform="matrix(0.05059061602898959,0,0,0.05059061602898959,19.173843474987056,0)" />
        <use
           id="use568"
           xlink:href="#K"
           transform="matrix(0.05059061602898959,0,0,0.05059061602898959,23.170502141277233,0)" />
        <use
           id="use570"
           xlink:href="#N"
           transform="matrix(0.05059061602898959,0,0,0.05059061602898959,33.288625347075154,0)" />
        <path
           id="path572"
           d="M-.9 1.26H44.3V2.6H-.9z" />
      </g>
      <path
         id="ap"
         d="M185-189c-5-48-123-54-124 2 14 75 158 14 163 119 3 78-121 87-175 55-17-10-28-26-33-46l33-7c5 56 141 63 141-1 0-78-155-14-162-118-5-82 145-84 179-34 5 7 8 16 11 25" />
      <g
         id="y">
        <use
           id="use576"
           xlink:href="#ab"
           transform="matrix(0.05059061602898959,0,0,0.05059061602898959,0,0)" />
        <use
           id="use578"
           xlink:href="#R"
           transform="matrix(0.05059061602898959,0,0,0.05059061602898959,12.141747846957502,0)" />
        <use
           id="use580"
           xlink:href="#S"
           transform="matrix(0.05059061602898959,0,0,0.05059061602898959,22.25987105275542,0)" />
        <use
           id="use582"
           xlink:href="#M"
           transform="matrix(0.05059061602898959,0,0,0.05059061602898959,31.366181937973547,0)" />
        <use
           id="use584"
           xlink:href="#ap"
           transform="matrix(0.05059061602898959,0,0,0.05059061602898959,36.42524354087251,0)" />
        <use
           id="use586"
           xlink:href="#M"
           transform="matrix(0.05059061602898959,0,0,0.05059061602898959,48.56699138783001,0)" />
        <use
           id="use588"
           xlink:href="#L"
           transform="matrix(0.05059061602898959,0,0,0.05059061602898959,53.62605299072897,0)" />
        <use
           id="use590"
           xlink:href="#J"
           transform="matrix(0.05059061602898959,0,0,0.05059061602898959,63.74417619652688,0)" />
        <use
           id="use592"
           xlink:href="#M"
           transform="matrix(0.05059061602898959,0,0,0.05059061602898959,69.76445950397664,0)" />
        <use
           id="use594"
           xlink:href="#ao"
           transform="matrix(0.05059061602898959,0,0,0.05059061602898959,74.8235211068756,0)" />
        <use
           id="use596"
           xlink:href="#L"
           transform="matrix(0.05059061602898959,0,0,0.05059061602898959,85.90286601722433,0)" />
        <use
           id="use598"
           xlink:href="#Y"
           transform="matrix(0.05059061602898959,0,0,0.05059061602898959,96.02098922302224,0)" />
        <use
           id="use600"
           xlink:href="#P"
           transform="matrix(0.05059061602898959,0,0,0.05059061602898959,100.01764788931241,0)" />
      </g>
      <g
         id="z">
        <use
           id="use603"
           xlink:href="#V"
           transform="matrix(0.05059061602898959,0,0,0.05059061602898959,0,0)" />
        <use
           id="use605"
           xlink:href="#Y"
           transform="matrix(0.05059061602898959,0,0,0.05059061602898959,9.106310885218127,0)" />
        <use
           id="use607"
           xlink:href="#P"
           transform="matrix(0.05059061602898959,0,0,0.05059061602898959,13.102969551508306,0)" />
        <use
           id="use609"
           xlink:href="#P"
           transform="matrix(0.05059061602898959,0,0,0.05059061602898959,17.099628217798482,0)" />
      </g>
      <g
         id="A">
        <use
           id="use612"
           xlink:href="#M"
           transform="matrix(0.05059061602898959,0,0,0.05059061602898959,0,0)" />
        <use
           id="use614"
           xlink:href="#U"
           transform="matrix(0.05059061602898959,0,0,0.05059061602898959,5.059061602898959,0)" />
        <use
           id="use616"
           xlink:href="#K"
           transform="matrix(0.05059061602898959,0,0,0.05059061602898959,15.177184808696879,0)" />
      </g>
      <path
         id="aq"
         d="M127-220V0H93v-220H8v-28h204v28h-85" />
      <g
         id="B">
        <use
           id="use620"
           xlink:href="#aq"
           transform="matrix(0.05059061602898959,0,0,0.05059061602898959,0,0)" />
        <use
           id="use622"
           xlink:href="#K"
           transform="matrix(0.05059061602898959,0,0,0.05059061602898959,9.055720269189138,0)" />
        <use
           id="use624"
           xlink:href="#J"
           transform="matrix(0.05059061602898959,0,0,0.05059061602898959,19.173843474987056,0)" />
        <use
           id="use626"
           xlink:href="#an"
           transform="matrix(0.05059061602898959,0,0,0.05059061602898959,25.19412678243682,0)" />
        <use
           id="use628"
           xlink:href="#Y"
           transform="matrix(0.05059061602898959,0,0,0.05059061602898959,40.320720975104706,0)" />
        <use
           id="use630"
           xlink:href="#W"
           transform="matrix(0.05059061602898959,0,0,0.05059061602898959,44.317379641394886,0)" />
        <use
           id="use632"
           xlink:href="#L"
           transform="matrix(0.05059061602898959,0,0,0.05059061602898959,54.4355028471928,0)" />
        <use
           id="use634"
           xlink:href="#M"
           transform="matrix(0.05059061602898959,0,0,0.05059061602898959,64.55362605299072,0)" />
        <use
           id="use636"
           xlink:href="#K"
           transform="matrix(0.05059061602898959,0,0,0.05059061602898959,69.61268765588969,0)" />
        <use
           id="use638"
           xlink:href="#N"
           transform="matrix(0.05059061602898959,0,0,0.05059061602898959,79.7308108616876,0)" />
      </g>
      <g
         id="C">
        <use
           id="use641"
           xlink:href="#O"
           transform="matrix(0.05059061602898959,0,0,0.05059061602898959,0,0)" />
        <use
           id="use643"
           xlink:href="#L"
           transform="matrix(0.05059061602898959,0,0,0.05059061602898959,9.106310885218127,0)" />
        <use
           id="use645"
           xlink:href="#P"
           transform="matrix(0.05059061602898959,0,0,0.05059061602898959,19.224434091016043,0)" />
        <use
           id="use647"
           xlink:href="#P"
           transform="matrix(0.05059061602898959,0,0,0.05059061602898959,23.22109275730622,0)" />
      </g>
      <g
         id="D">
        <use
           id="use650"
           xlink:href="#Q"
           transform="matrix(0.05059061602898959,0,0,0.05059061602898959,0,0)" />
        <use
           id="use652"
           xlink:href="#R"
           transform="matrix(0.05059061602898959,0,0,0.05059061602898959,10.118123205797918,0)" />
        <use
           id="use654"
           xlink:href="#S"
           transform="matrix(0.05059061602898959,0,0,0.05059061602898959,20.236246411595836,0)" />
        <use
           id="use656"
           xlink:href="#M"
           transform="matrix(0.05059061602898959,0,0,0.05059061602898959,29.342557296813965,0)" />
        <use
           id="use658"
           xlink:href="#T"
           transform="matrix(0.05059061602898959,0,0,0.05059061602898959,34.40161889971292,0)" />
        <use
           id="use660"
           xlink:href="#M"
           transform="matrix(0.05059061602898959,0,0,0.05059061602898959,40.42190220716268,0)" />
        <use
           id="use662"
           xlink:href="#K"
           transform="matrix(0.05059061602898959,0,0,0.05059061602898959,45.48096381006164,0)" />
        <use
           id="use664"
           xlink:href="#J"
           transform="matrix(0.05059061602898959,0,0,0.05059061602898959,55.59908701585955,0)" />
        <use
           id="use666"
           xlink:href="#an"
           transform="matrix(0.05059061602898959,0,0,0.05059061602898959,61.61937032330931,0)" />
        <use
           id="use668"
           xlink:href="#Y"
           transform="matrix(0.05059061602898959,0,0,0.05059061602898959,76.74596451597719,0)" />
        <use
           id="use670"
           xlink:href="#W"
           transform="matrix(0.05059061602898959,0,0,0.05059061602898959,80.74262318226737,0)" />
        <use
           id="use672"
           xlink:href="#L"
           transform="matrix(0.05059061602898959,0,0,0.05059061602898959,90.86074638806528,0)" />
        <use
           id="use674"
           xlink:href="#M"
           transform="matrix(0.05059061602898959,0,0,0.05059061602898959,100.9788695938632,0)" />
        <use
           id="use676"
           xlink:href="#K"
           transform="matrix(0.05059061602898959,0,0,0.05059061602898959,106.03793119676216,0)" />
        <path
           id="path678"
           d="M-.9 1.26h117.97V2.6H-.9z" />
      </g>
      <path
         id="ar"
         d="M24 0v-248h52v208h133V0H24" />
      <path
         id="as"
         d="M195-6C206 82 75 100 31 46c-4-6-6-13-8-21l49-6c3 16 16 24 34 25 40 0 42-37 40-79-11 22-30 35-61 35-53 0-70-43-70-97 0-56 18-96 73-97 30 0 46 14 59 34l2-30h47zm-90-29c32 0 41-27 41-63 0-35-9-62-40-62-32 0-39 29-40 63 0 36 9 62 39 62" />
      <path
         id="at"
         d="M88-194c31-1 46 15 58 34l-1-101h50l1 261h-48c-2-10 0-23-3-31C134-8 116 4 84 4 32 4 16-41 15-95c0-56 19-97 73-99zm17 164c33 0 40-30 41-66 1-37-9-64-41-64s-38 30-39 65c0 43 13 65 39 65" />
      <g
         id="E">
        <use
           id="use684"
           xlink:href="#ar"
           transform="matrix(0.05059061602898959,0,0,0.05059061602898959,0,0)" />
        <use
           id="use686"
           xlink:href="#ad"
           transform="matrix(0.05059061602898959,0,0,0.05059061602898959,11.079344910348722,0)" />
        <use
           id="use688"
           xlink:href="#as"
           transform="matrix(0.05059061602898959,0,0,0.05059061602898959,21.197468116146638,0)" />
        <use
           id="use690"
           xlink:href="#ad"
           transform="matrix(0.05059061602898959,0,0,0.05059061602898959,32.27681302649536,0)" />
        <use
           id="use692"
           xlink:href="#ai"
           transform="matrix(0.05059061602898959,0,0,0.05059061602898959,42.394936232293276,0)" />
        <use
           id="use694"
           xlink:href="#at"
           transform="matrix(0.05059061602898959,0,0,0.05059061602898959,53.474281142642,0)" />
      </g>
      <g
         id="F">
        <use
           id="use697"
           xlink:href="#ap"
           transform="matrix(0.05059061602898959,0,0,0.05059061602898959,0,0)" />
        <use
           id="use699"
           xlink:href="#aa"
           transform="matrix(0.05059061602898959,0,0,0.05059061602898959,12.141747846957502,0)" />
        <use
           id="use701"
           xlink:href="#O"
           transform="matrix(0.05059061602898959,0,0,0.05059061602898959,22.25987105275542,0)" />
        <use
           id="use703"
           xlink:href="#O"
           transform="matrix(0.05059061602898959,0,0,0.05059061602898959,31.366181937973547,0)" />
        <use
           id="use705"
           xlink:href="#K"
           transform="matrix(0.05059061602898959,0,0,0.05059061602898959,40.47249282319168,0)" />
        <use
           id="use707"
           xlink:href="#S"
           transform="matrix(0.05059061602898959,0,0,0.05059061602898959,50.5906160289896,0)" />
        <use
           id="use709"
           xlink:href="#S"
           transform="matrix(0.05059061602898959,0,0,0.05059061602898959,59.69692691420773,0)" />
      </g>
      <g
         id="G">
        <use
           id="use712"
           xlink:href="#ao"
           transform="matrix(0.05059061602898959,0,0,0.05059061602898959,0,0)" />
        <use
           id="use714"
           xlink:href="#L"
           transform="matrix(0.05059061602898959,0,0,0.05059061602898959,11.079344910348722,0)" />
        <use
           id="use716"
           xlink:href="#Y"
           transform="matrix(0.05059061602898959,0,0,0.05059061602898959,21.197468116146638,0)" />
        <use
           id="use718"
           xlink:href="#P"
           transform="matrix(0.05059061602898959,0,0,0.05059061602898959,25.194126782436815,0)" />
        <use
           id="use720"
           xlink:href="#aa"
           transform="matrix(0.05059061602898959,0,0,0.05059061602898959,29.190785448726988,0)" />
        <use
           id="use722"
           xlink:href="#J"
           transform="matrix(0.05059061602898959,0,0,0.05059061602898959,39.30890865452491,0)" />
        <use
           id="use724"
           xlink:href="#K"
           transform="matrix(0.05059061602898959,0,0,0.05059061602898959,45.32919196197467,0)" />
      </g>
      <path
         id="au"
         d="M33 0v-248h34V0H33" />
      <path
         id="av"
         d="M115-194c53 0 69 39 70 98 0 66-23 100-70 100C84 3 66-7 56-30L54 0H23l1-261h32v101c10-23 28-34 59-34zm-8 174c40 0 45-34 45-75 0-40-5-75-45-74-42 0-51 32-51 76 0 43 10 73 51 73" />
      <g
         id="H">
        <use
           id="use729"
           xlink:href="#au"
           transform="matrix(0.05059061602898959,0,0,0.05059061602898959,0,0)" />
        <use
           id="use731"
           xlink:href="#W"
           transform="matrix(0.05059061602898959,0,0,0.05059061602898959,5.059061602898959,0)" />
        <use
           id="use733"
           xlink:href="#X"
           transform="matrix(0.05059061602898959,0,0,0.05059061602898959,15.177184808696879,0)" />
        <use
           id="use735"
           xlink:href="#L"
           transform="matrix(0.05059061602898959,0,0,0.05059061602898959,20.236246411595836,0)" />
        <use
           id="use737"
           xlink:href="#P"
           transform="matrix(0.05059061602898959,0,0,0.05059061602898959,30.354369617393758,0)" />
        <use
           id="use739"
           xlink:href="#P"
           transform="matrix(0.05059061602898959,0,0,0.05059061602898959,34.35102828368393,0)" />
        <use
           id="use741"
           xlink:href="#Y"
           transform="matrix(0.05059061602898959,0,0,0.05059061602898959,38.34768694997411,0)" />
        <use
           id="use743"
           xlink:href="#av"
           transform="matrix(0.05059061602898959,0,0,0.05059061602898959,42.34434561626429,0)" />
        <use
           id="use745"
           xlink:href="#P"
           transform="matrix(0.05059061602898959,0,0,0.05059061602898959,52.462468822062206,0)" />
        <use
           id="use747"
           xlink:href="#K"
           transform="matrix(0.05059061602898959,0,0,0.05059061602898959,56.45912748835239,0)" />
      </g>
    </defs>
  </g>
</svg>
